Coordinates
version=1
nRows=54
nColumns=12
inDegrees=yes

Units are S.I. units (second, meters, Newtons, ...)
Angles are in degrees

endheader
time	SC_y	SC_z	SC_x	AC_y	AC_z	AC_x	GH_y	GH_z	GH_yy	EL_x	PS_y
       0.0              -22.62          23.87          78.35          49.47         -14.21          10.41         -160.9          4.553         -167.6          109.3           52.1
   0.02534              -22.62          23.86          78.35          49.47         -14.21          10.41         -160.9          4.561         -167.6          109.3           52.1
   0.05069              -22.62          23.86          78.35          49.47         -14.21          10.41         -160.9          4.569         -167.6          109.2          52.11
   0.07603              -22.63          23.86          78.35          49.47         -14.21          10.41         -160.8          4.577         -167.6          109.2          52.12
    0.1014              -22.63          23.85          78.35          49.47         -14.21          10.41         -160.8          4.586         -167.6          109.2          52.12
    0.1267              -22.63          23.85          78.35          49.47         -14.21          10.41         -160.7          4.595         -167.6          109.2          52.13
    0.1521              -22.64          23.85          78.35          49.47         -14.21          10.41         -160.7          4.606         -167.6          109.2          52.14
    0.1774              -22.64          23.84          78.35          49.47         -14.21          10.41         -160.6          4.616         -167.6          109.2          52.15
    0.2027              -22.64          23.84          78.35          49.47         -14.21          10.41         -160.5          4.628         -167.5          109.2          52.16
    0.2281              -22.65          23.84          78.35          49.47         -14.21          10.41         -160.5          4.641         -167.5          109.2          52.17
    0.2534              -22.65          23.83          78.34          49.47         -14.21          10.41         -160.4          4.654         -167.5          109.2          52.18
    0.2788              -22.66          23.83          78.34          49.47         -14.21          10.41         -160.3          4.668         -167.5          109.2           52.2
    0.3041              -22.66          23.82          78.34          49.47         -14.21          10.41         -160.2          4.684         -167.5          109.2          52.21
    0.3295              -22.67          23.82          78.34          49.47         -14.21          10.41         -160.1          4.701         -167.5          109.2          52.22
    0.3548              -22.67          23.81          78.34          49.47         -14.22          10.41         -160.0          4.719         -167.4          109.2          52.24
    0.3802              -22.68           23.8          78.34          49.47         -14.22          10.41         -159.9          4.739         -167.4          109.2          52.26
    0.4055              -22.68           23.8          78.34          49.47         -14.22          10.41         -159.8           4.76         -167.4          109.2          52.27
    0.4308              -22.69          23.79          78.34          49.47         -14.22          10.41         -159.7          4.784         -167.3          109.1          52.29
    0.4562               -22.7          23.78          78.34          49.47         -14.22          10.42         -159.5          4.809         -167.3          109.1          52.32
    0.4815              -22.71          23.77          78.34          49.47         -14.22          10.42         -159.4          4.837         -167.3          109.1          52.34
    0.5069              -22.72          23.76          78.33          49.48         -14.22          10.42         -159.2          4.868         -167.2          109.1          52.37
    0.5322              -22.73          23.75          78.33          49.48         -14.22          10.42         -159.0          4.902         -167.2          109.1          52.39
    0.5576              -22.74          23.74          78.33          49.48         -14.22          10.42         -158.8          4.939         -167.1          109.1          52.43
    0.5829              -22.75          23.72          78.33          49.48         -14.23          10.42         -158.6           4.98         -167.1          109.0          52.46
    0.6082              -22.77          23.71          78.33          49.48         -14.23          10.42         -158.3          5.026         -167.0          109.0           52.5
    0.6336              -22.78          23.69          78.33          49.48         -14.23          10.42         -158.1          5.077         -167.0          109.0          52.55
    0.6589               -22.8          23.67          78.32          49.48         -14.23          10.42         -157.7          5.135         -166.9          109.0          52.59
    0.6843              -22.82          23.65          78.32          49.49         -14.23          10.42         -157.4          5.199         -166.8          108.9          52.65
    0.7096              -22.84          23.62          78.32          49.49         -14.24          10.42         -157.0          5.272         -166.7          108.9          52.71
     0.735              -22.87           23.6          78.31          49.49         -14.24          10.42         -156.5          5.355         -166.6          108.9          52.78
    0.7603               -22.9          23.56          78.31          49.49         -14.24          10.42         -156.0           5.45         -166.5          108.8          52.86
    0.7856              -22.93          23.53           78.3           49.5         -14.25          10.42         -155.4          5.558         -166.3          108.8          52.96
     0.811              -22.97          23.49           78.3           49.5         -14.25          10.43         -154.7          5.684         -166.2          108.7          53.06
    0.8363              -23.02          23.44          78.29           49.5         -14.26          10.43         -153.9          5.829         -166.0          108.6          53.19
    0.8617              -23.07          23.38          78.28          49.51         -14.27          10.43         -153.0            6.0         -165.7          108.5          53.33
     0.887              -23.13          23.31          78.27          49.51         -14.27          10.43         -151.9          6.201         -165.5          108.4          53.51
    0.9124              -23.21          23.23          78.26          49.52         -14.28          10.43         -150.6          6.439         -165.2          108.3          53.71
    0.9377               -23.3          23.14          78.25          49.53          -14.3          10.44         -149.0          6.726         -164.8          108.2          53.96
     0.963              -23.41          23.02          78.23          49.54         -14.31          10.44         -147.1          7.072         -164.3          108.0          54.25
    0.9884              -23.54          22.88          78.21          49.55         -14.33          10.45         -144.7          7.495         -163.8          107.8          54.61
     1.014               -23.7           22.7          78.19          49.57         -14.35          10.45         -141.9          8.017         -163.1          107.6          55.06
     1.039              -23.91          22.49          78.16          49.59         -14.37          10.46         -138.3          8.668         -162.2          107.2          55.62
     1.064              -24.16          22.21          78.12          49.61         -14.41          10.47         -133.8          9.488         -161.1          106.8          56.32
      1.09              -24.49          21.86          78.07          49.64         -14.45          10.48         -128.0          10.53         -159.8          106.3          57.21
     1.115              -24.91          21.41          78.01          49.68          -14.5           10.5         -120.7          11.86         -158.0          105.7          58.35
      1.14              -25.44          20.84          77.93          49.73         -14.57          10.52         -111.2          13.58         -155.7          104.8          59.82
     1.166              -26.13           20.1          77.83           49.8         -14.66          10.54          -99.2          15.76         -152.8          103.7          61.69
     1.191              -26.99          19.18          77.71          49.88         -14.77          10.57         -84.06          18.51         -149.2          102.4          64.04
     1.216              -28.03          18.06          77.55          49.98          -14.9          10.61          -65.6          21.86         -144.8          100.7          66.91
     1.242              -29.25          16.75          77.37          50.09         -15.06          10.66         -44.21          25.75         -139.7          98.83          70.23
     1.267              -30.56          15.34          77.18          50.22         -15.22          10.71         -21.04          29.95         -134.1          96.76          73.83
     1.293              -31.88          13.93          76.99          50.34         -15.39          10.76          2.122          34.16         -128.5          94.69          77.43
     1.318              -33.09          12.63          76.81          50.46         -15.55           10.8          23.52          38.04         -123.4          92.78          80.75
     1.343              -34.14          11.51          76.65          50.56         -15.68          10.84          41.97          41.39         -119.0          91.13          83.62
